<svg width="34" height="34" viewBox="0 0 34 34" fill="none" xmlns="http://www.w3.org/2000/svg">
<rect width="34" height="34" fill="#FF1B1B"/>
<path d="M12.45 27.674C13.0367 27.586 13.5133 27.4027 13.88 27.124C14.2613 26.8453 14.5547 26.3613 14.76 25.672C14.9653 24.9827 15.068 24.022 15.068 22.79V10.756C15.068 10.1987 15.024 9.79533 14.936 9.546C14.8627 9.29667 14.7233 9.128 14.518 9.04C14.3127 8.952 13.9753 8.89333 13.506 8.864V8.424C14.298 8.468 15.5227 8.49 17.18 8.49C18.896 8.49 20.2013 8.468 21.096 8.424V8.864C20.6267 8.89333 20.282 8.952 20.062 9.04C19.8567 9.128 19.7173 9.29667 19.644 9.546C19.5707 9.79533 19.534 10.1987 19.534 10.756V18.808V20.634C19.534 21.4847 19.5047 22.2327 19.446 22.878C19.402 23.5233 19.3067 24.0807 19.16 24.55C18.808 25.6207 18.0673 26.486 16.938 27.146C15.8087 27.806 14.3127 28.136 12.45 28.136V27.674Z" fill="white"/>
</svg>
