<svg width="12" height="15" viewBox="0 0 12 15" fill="none" xmlns="http://www.w3.org/2000/svg">
<path d="M8.94 7.74C9.75333 7.96667 10.38 8.37333 10.82 8.96C11.2733 9.54667 11.5 10.28 11.5 11.16C11.5 12.3733 11.08 13.32 10.24 14C9.41333 14.6667 8.25333 15 6.76 15H1.66C1.34 15 1.08667 14.9133 0.9 14.74C0.726667 14.5533 0.64 14.3067 0.64 14V1.9C0.64 1.59333 0.726667 1.35333 0.9 1.18C1.08667 0.993332 1.34 0.899999 1.66 0.899999H6.54C7.99333 0.899999 9.12667 1.22667 9.94 1.88C10.7667 2.52 11.18 3.42 11.18 4.58C11.18 5.32667 10.98 5.97333 10.58 6.52C10.1933 7.06667 9.64667 7.47333 8.94 7.74ZM2.66 7H6.22C8.19333 7 9.18 6.25333 9.18 4.76C9.18 4.01333 8.93333 3.46 8.44 3.1C7.96 2.74 7.22 2.56 6.22 2.56H2.66V7ZM6.54 13.34C7.56667 13.34 8.32 13.1533 8.8 12.78C9.28 12.4067 9.52 11.8267 9.52 11.04C9.52 10.24 9.27333 9.64667 8.78 9.26C8.3 8.86 7.55333 8.66 6.54 8.66H2.66V13.34H6.54Z" fill="white"/>
</svg>
